<?xml version="1.0" encoding="utf-8"?>
<!-- Generator: Adobe Illustrator 25.4.1, SVG Export Plug-In . SVG Version: 6.00 Build 0)  -->
<svg version="1.1" id="Capa_1" xmlns="http://www.w3.org/2000/svg" xmlns:xlink="http://www.w3.org/1999/xlink" x="0px" y="0px"
	 viewBox="0 0 260 190" style="enable-background:new 0 0 260 190;" xml:space="preserve">
<style type="text/css">
	.st0{fill:#ED2229;}
	.st1{fill:#FFFFFF;}
</style>
<g>
	<g>
		<path d="M75.2,141.2c-0.5,0.9-1.2,1.2-2.1,1.2c-0.8,0-1.4-0.3-1.8-0.9c-0.5-0.7-0.7-1.5-0.7-2.6c0-1.1,0.2-1.9,0.7-2.6
			c0.5-0.7,1-0.9,1.8-0.9c1,0,1.7,0.5,2.1,1.2l0.1,0.1l2.3-1.2l-0.1-0.1c-0.5-0.8-1-1.5-1.8-1.9c-0.8-0.5-1.7-0.7-2.6-0.7
			c-1.6,0-2.8,0.6-3.8,1.7c-0.9,1.1-1.5,2.6-1.5,4.4c0,1.7,0.5,3.2,1.4,4.3c0.9,1.1,2.1,1.8,3.8,1.8c0.9,0,1.8-0.2,2.5-0.6
			c0.8-0.3,1.4-1.1,1.9-2l0.1-0.1l-2.3-1.2L75.2,141.2z"/>
		<path d="M83,133c-1.6,0-2.7,0.6-3.6,1.7c-0.9,1.1-1.4,2.6-1.4,4.4c0,1.7,0.3,3.2,1.1,4.2c0.9,1.2,2.1,1.9,3.8,1.9
			c1.5,0,2.7-0.6,3.6-1.7c0.9-1.1,1.4-2.6,1.4-4.4c0-1.8-0.5-3.3-1.4-4.4C85.7,133.5,84.4,133,83,133z M81.3,136.3
			c0.5-0.6,1-0.9,1.7-0.9c0.8,0,1.4,0.3,1.8,0.9c0.5,0.6,0.6,1.5,0.6,2.6c0,1.1-0.2,2-0.7,2.6c-0.5,0.7-1,0.9-1.7,0.9
			c-0.8,0-1.4-0.3-1.8-0.9c-0.5-0.6-0.7-1.5-0.7-2.6C80.6,137.8,80.8,136.9,81.3,136.3z"/>
		<polygon points="95.9,139.8 91.3,133.1 88.9,133.1 88.9,144.9 91.5,144.9 91.5,137.8 96.2,144.9 98.5,144.9 98.5,133.1 
			95.9,133.1 		"/>
		<path d="M107.5,138.6c-0.8-0.7-2-1.1-3.5-1.2c-0.7-0.1-1.1-0.2-1.5-0.3c-0.2-0.1-0.3-0.3-0.3-0.6c0-0.2,0.1-0.5,0.3-0.7
			c0.2-0.2,0.7-0.2,1.4-0.2c0.9,0,1.7,0.3,2.3,0.8l0.1,0.1l1.8-1.8l-0.1-0.1c-1.1-1-2.6-1.5-4.2-1.6c-1.4,0-2.4,0.3-3.1,1
			c-0.7,0.7-1.1,1.6-1.1,2.6c0,0.9,0.3,1.6,1,2.3c0.7,0.7,1.7,1,3.1,1.2c0.9,0.1,1.6,0.3,1.9,0.6c0.3,0.2,0.6,0.5,0.5,0.8
			c0,0.3-0.2,0.6-0.6,0.8c-0.3,0.2-0.9,0.3-1.6,0.3c-1.1-0.1-2.1-0.5-3.1-1.2l-0.1-0.1l-1.8,1.9l0.1,0.1c1.5,1.2,3.1,1.9,4.9,1.9
			l0,0c1.4,0,2.5-0.3,3.4-0.9c0.9-0.7,1.4-1.6,1.4-2.8C108.8,140.2,108.3,139.3,107.5,138.6z"/>
		<polygon points="108.9,135.7 112.1,135.7 112.1,144.9 114.6,144.9 114.6,135.7 117.8,135.7 117.8,133.1 108.9,133.1 		"/>
		<path d="M128.1,136.8c0-0.7-0.1-1.2-0.5-1.9c-0.3-0.6-0.8-1-1.4-1.4c-0.6-0.3-1.4-0.5-2.1-0.5h-5.3v11.9h2.6v-4.3h2.8l1.6,4.3h2.7
			l-1.8-5C127.5,139.2,128.1,138.2,128.1,136.8z M125.6,136.8c0,0.3-0.1,0.7-0.3,0.9s-0.6,0.3-0.9,0.3h-3.1v-2.4h3.1
			c0.3,0,0.7,0.1,0.9,0.3C125.4,136.2,125.6,136.5,125.6,136.8z"/>
		<path d="M136.2,140.1c0,0.6-0.1,1-0.2,1.4c-0.5,0.7-1,1.1-1.9,1.1c-0.6,0-1.1-0.2-1.6-0.7c-0.5-0.5-0.7-0.9-0.7-1.5v-7.2h-2.6v7.3
			c0,1.2,0.5,2.4,1.5,3.3c1,0.9,2.1,1.4,3.4,1.4c0.8,0,1.7-0.2,2.4-0.7s1.4-1,1.7-1.7c0.5-0.8,0.6-1.7,0.6-2.7v-7h-2.6v7H136.2z"/>
		<path d="M147.1,141.2c-0.5,0.9-1.2,1.2-2.1,1.2c-0.8,0-1.4-0.3-1.8-0.9c-0.5-0.7-0.7-1.5-0.7-2.6c0-1.1,0.2-1.9,0.7-2.6
			c0.5-0.7,1-0.9,1.8-0.9c1,0,1.7,0.5,2.1,1.2l0.1,0.1l2.3-1.2l-0.1-0.1c-0.5-0.8-1-1.5-1.8-1.9c-0.8-0.5-1.7-0.7-2.6-0.7
			c-1.6,0-2.8,0.6-3.7,1.7s-1.5,2.6-1.5,4.4c0,1.7,0.5,3.2,1.4,4.3c0.9,1.1,2.1,1.8,3.8,1.8c0.9,0,1.8-0.2,2.5-0.6
			c0.8-0.3,1.4-1.1,1.9-2l0.1-0.1l-2.3-1.2L147.1,141.2z"/>
		<polygon points="150.3,135.7 153.5,135.7 153.5,144.9 156,144.9 156,135.7 159.2,135.7 159.2,133.1 150.3,133.1 		"/>
		<path d="M164.7,133c-1.6,0-2.7,0.6-3.6,1.7s-1.4,2.6-1.4,4.4c0,1.7,0.3,3.2,1.1,4.2c0.9,1.2,2.1,1.9,3.8,1.9
			c1.5,0,2.7-0.6,3.6-1.7s1.4-2.6,1.4-4.4c0-1.8-0.5-3.3-1.4-4.4S166.2,133,164.7,133z M163,136.3c0.5-0.6,1-0.9,1.7-0.9
			c0.8,0,1.4,0.3,1.8,0.9c0.5,0.6,0.6,1.5,0.6,2.6c0,1.1-0.2,2-0.7,2.6c-0.5,0.7-1,0.9-1.7,0.9c-0.8,0-1.4-0.3-1.8-0.9
			c-0.5-0.6-0.7-1.5-0.7-2.6C162.3,137.8,162.6,136.9,163,136.3z"/>
		<path d="M180,136.8c0-0.7-0.2-1.2-0.5-1.9c-0.3-0.6-0.8-1-1.4-1.4c-0.6-0.3-1.4-0.5-2.1-0.5h-5.3v11.9h2.6v-4.3h2.8l1.6,4.3h2.7
			l-1.8-5C179.4,139.2,180,138.2,180,136.8z M177.5,136.8c0,0.3-0.1,0.7-0.3,0.9c-0.2,0.2-0.6,0.3-0.9,0.3h-3.1v-2.4h3.1
			c0.3,0,0.7,0.1,0.9,0.3C177.4,136.2,177.5,136.5,177.5,136.8z"/>
		<path d="M188.1,133.1h-2.6l-4.7,11.9h2.8l1.1-2.7h4.4l1.1,2.7h2.8L188.1,133.1z M187.9,139.6h-2.3l1.1-2.7L187.9,139.6z"/>
	</g>
	<g>
		<g>
			<path class="st0" d="M91.1,23.7h78.4l-39.1,55.7L91.1,23.7z"/>
			<g>
				<path class="st0" d="M169.8,48.3l-39.6,55.8h39.6V48.3z"/>
				<path class="st0" d="M90.9,48.3l39.6,55.8H90.9V48.3z"/>
			</g>
		</g>
		<g>
			<path class="st1" d="M180.4,113.9C180.4,113.9,180.4,113.7,180.4,113.9C180.4,113.7,180.4,113.7,180.4,113.9z"/>
			<path class="st0" d="M181.8,1.5h-114v113.1c0,5.2,5.5,11.8,12,11.8H193c-0.2-0.6,0,0,0,0v-114C193,6.8,189.7,1.5,181.8,1.5z
				 M184.3,117.7h-100c-6.4,0-7.8-2.6-7.8-8V10.1h99.8c5.8,0,8.1,1.7,8.1,8v99.6H184.3z"/>
		</g>
	</g>
	<g>
		<polygon points="118.5,152.7 112.6,157.3 117.1,157.3 126.9,152.7 		"/>
		<polygon points="43.3,170.7 33.9,150.9 26.1,150.9 26.1,188.1 34.2,188.1 34.2,170.4 43.2,188.2 52.5,170 52.5,188.1 60.8,188.1 
			60.8,150.9 52.8,150.9 		"/>
		<path d="M75.9,159.1c-3.4,0-6.4,1.4-8.8,4c-2.4,2.6-3.6,6.2-3.7,10.6c0,4.5,1.1,8,3.4,10.7c2.3,2.6,5.4,4.1,9.4,4.2h0.5
			c3.8,0,7.3-1.5,10.4-4.5l0.5-0.5l-6.1-5.4l-0.5,0.5c-1.1,1.4-2.6,1.9-4.4,1.8c-1.8-0.1-3.1-0.7-3.7-1.7c-0.5-0.8-0.8-1.5-1-2.1
			h16.2V176c0.3-5.8-0.7-10.1-3.2-12.8C82.3,160.5,79.4,159.1,75.9,159.1z M73.1,167.8c0.6-0.7,1.4-1.1,2.6-1.1h0.1
			c1.4,0,2.3,0.5,2.7,1.1c0.5,0.7,0.8,1.4,1,2.3h-7.7C72.2,169.2,72.7,168.4,73.1,167.8z"/>
		<polygon points="90.8,188.1 99.1,188.1 99.1,148.8 90.8,153 		"/>
		<path d="M114.1,159.1c-3.4,0-6.4,1.4-8.8,4s-3.6,6.2-3.7,10.6c0,4.5,1.1,8,3.4,10.7c2.3,2.6,5.4,4.1,9.4,4.2h0.5
			c3.8,0,7.3-1.5,10.4-4.5l0.5-0.5l-6.1-5.4l-0.5,0.5c-1.1,1.4-2.6,1.9-4.4,1.8c-1.8-0.1-3.1-0.7-3.7-1.7c-0.5-0.8-0.8-1.5-1-2.1
			H126V176c0.3-5.8-0.7-10.1-3.2-12.8C120.5,160.5,117.6,159.1,114.1,159.1z M111.4,167.8c0.6-0.7,1.4-1.1,2.6-1.1h0.1
			c1.4,0,2.3,0.5,2.8,1.1c0.5,0.7,0.8,1.4,1,2.3h-7.7C110.4,169.2,110.9,168.4,111.4,167.8z"/>
		<path d="M144.4,159.2c-2.3-0.1-4.5,0.5-6.6,1.7v-1h-8.4l0.1,28.4h8.4V171c0-1,0.3-1.9,1.1-2.7s1.7-1.1,2.9-1.1s2.1,0.5,2.9,1.2
			c0.8,0.9,1.1,1.8,1.1,2.7v17.1h8.3v-16.8c0-4.1-0.9-7.1-2.8-9C149.3,160.4,147.1,159.3,144.4,159.2z"/>
		<path d="M173.4,160.6c-1.6-0.9-3.4-1.5-5.7-1.5c-2.7,0-5.2,1.2-7.3,3.5c-2.1,2.4-3.3,6.1-3.3,11.2s1.1,8.8,3.3,11.2
			c2.1,2.4,4.6,3.6,7.3,3.6h0.3c2,0,3.8-0.6,5.3-1.7v1.1h8.3v-39.2l-8.3,4.2V160.6z M173.4,169.2v9.4c-1.1,1.4-2.4,2-3.7,2
			c-1.2,0-2.1-0.6-2.8-1.8c-0.8-1.4-1.1-3.2-1.1-5.4c0-2.3,0.3-3.8,1-4.7c0.7-0.9,1.6-1.4,2.8-1.4l0.1-0.6l0,0v0.6
			C170.9,167.3,172.2,168,173.4,169.2z"/>
		<path d="M196.3,159.1c-3.4,0-6.4,1.4-8.8,4c-2.4,2.6-3.6,6.2-3.7,10.6c0,4.5,1.1,8,3.4,10.7c2.3,2.6,5.4,4.1,9.4,4.2h0.5
			c3.8,0,7.3-1.5,10.4-4.5l0.5-0.5l-6.1-5.4l-0.5,0.5c-1.1,1.4-2.6,1.9-4.4,1.8c-1.8-0.1-3.1-0.7-3.7-1.7c-0.5-0.8-0.8-1.5-1-2.1
			h16.2V176c0.3-5.8-0.7-10.1-3.2-12.8C202.8,160.5,199.7,159.1,196.3,159.1z M193.5,167.8c0.6-0.7,1.4-1.1,2.6-1.1h0.1
			c1.4,0,2.3,0.5,2.8,1.1c0.5,0.7,0.8,1.4,1,2.3h-7.7C192.7,169.2,193.1,168.4,193.5,167.8z"/>
		<polygon points="233.9,159.9 211.2,159.9 211.2,167.3 222.5,167.3 210.3,181.8 210.3,188.1 233.9,188.1 233.9,180.3 221.9,180.3 
			233.9,165.8 		"/>
	</g>
</g>
</svg>
