<svg width="54" height="54" viewBox="0 0 54 54" fill="none" xmlns="http://www.w3.org/2000/svg">
<g filter="url(#filter0_d_1431_1590)">
<circle cx="27" cy="27" r="17" fill="#5454E9"/>
<path d="M18.2891 31.7593L17.7586 31.2291L17.5391 31.4487V31.7593H18.2891ZM31.0417 19L31.5721 18.4698C31.4315 18.3291 31.2407 18.25 31.0417 18.25C30.8427 18.25 30.6519 18.3291 30.5112 18.4698L31.0417 19ZM34.9656 22.9259L35.496 23.4561C35.7887 23.1633 35.7887 22.6886 35.496 22.3957L34.9656 22.9259ZM22.2129 35.6852V36.4352H22.5237L22.7434 36.2154L22.2129 35.6852ZM18.2891 35.6852H17.5391C17.5391 36.0994 17.8748 36.4352 18.2891 36.4352V35.6852ZM18.8195 32.2895L31.5721 19.5302L30.5112 18.4698L17.7586 31.2291L18.8195 32.2895ZM30.5112 19.5302L34.4351 23.4561L35.496 22.3957L31.5721 18.4698L30.5112 19.5302ZM34.4351 22.3957L21.6825 35.155L22.7434 36.2154L35.496 23.4561L34.4351 22.3957ZM22.2129 34.9352H18.2891V36.4352H22.2129V34.9352ZM19.0391 35.6852V31.7593H17.5391V35.6852H19.0391ZM27.5683 22.4746L31.4922 26.4006L32.5531 25.3402L28.6292 21.4143L27.5683 22.4746Z" fill="white"/>
</g>
<defs>
<filter id="filter0_d_1431_1590" x="0" y="0" width="54" height="54" filterUnits="userSpaceOnUse" color-interpolation-filters="sRGB">
<feFlood flood-opacity="0" result="BackgroundImageFix"/>
<feColorMatrix in="SourceAlpha" type="matrix" values="0 0 0 0 0 0 0 0 0 0 0 0 0 0 0 0 0 0 127 0" result="hardAlpha"/>
<feOffset/>
<feGaussianBlur stdDeviation="5"/>
<feComposite in2="hardAlpha" operator="out"/>
<feColorMatrix type="matrix" values="0 0 0 0 0 0 0 0 0 0 0 0 0 0 0 0 0 0 0.1 0"/>
<feBlend mode="normal" in2="BackgroundImageFix" result="effect1_dropShadow_1431_1590"/>
<feBlend mode="normal" in="SourceGraphic" in2="effect1_dropShadow_1431_1590" result="shape"/>
</filter>
</defs>
</svg>
