<svg width="36" height="36" viewBox="0 0 36 36" fill="none" xmlns="http://www.w3.org/2000/svg">
<path d="M7.65665 5.19833C11.4197 4.19003 15.5245 5.71172 16.8017 10.4782" stroke="white" stroke-width="2.7088" stroke-linecap="round"/>
<path d="M15.433 1.96717C19.1961 2.97547 21.9901 6.34572 20.7129 11.1122" stroke="white" stroke-width="2.7088" stroke-linecap="round"/>
<path d="M23.7836 3.057C26.5383 5.81174 27.2729 10.1275 23.7836 13.6168" stroke="white" stroke-width="2.7088" stroke-linecap="round"/>
<path d="M30.4698 8.17585C31.4781 11.9389 29.9564 16.0437 25.1899 17.3209" stroke="white" stroke-width="2.7088" stroke-linecap="round"/>
<path d="M33.7011 15.9521C32.6928 19.7152 29.3226 22.5092 24.5561 21.232" stroke="white" stroke-width="2.7088" stroke-linecap="round"/>
<path d="M32.611 24.3021C29.8562 27.0568 25.5405 27.7914 22.0511 24.3021" stroke="white" stroke-width="2.7088" stroke-linecap="round"/>
<path d="M27.4918 30.9886C23.7287 31.9969 19.6239 30.4752 18.3467 25.7087" stroke="white" stroke-width="2.7088" stroke-linecap="round"/>
<path d="M19.7154 34.2197C15.9524 33.2114 13.1583 29.8411 14.4355 25.0746" stroke="white" stroke-width="2.7088" stroke-linecap="round"/>
<path d="M11.3658 33.1299C8.61111 30.3752 7.87652 26.0594 11.3658 22.5701" stroke="white" stroke-width="2.7088" stroke-linecap="round"/>
<path d="M4.67965 28.011C3.67135 24.248 5.19305 20.1432 9.95956 18.866" stroke="white" stroke-width="2.7088" stroke-linecap="round"/>
<path d="M1.44828 20.2348C2.45658 16.4717 5.82683 13.6777 10.5933 14.9549" stroke="white" stroke-width="2.7088" stroke-linecap="round"/>
<path d="M2.53845 11.8848C5.29318 9.13006 9.60894 8.39547 13.0983 11.8848" stroke="white" stroke-width="2.7088" stroke-linecap="round"/>
</svg>
