<svg width="165" height="36" viewBox="0 0 165 36" fill="none" xmlns="http://www.w3.org/2000/svg">
<path d="M45.3925 29.5801V10.3035H56.6831V13.7733H49.2478V18.0968H56.5454V21.4564H49.2478V26.1104H56.7382V29.5801H45.3925ZM63.1053 29.5801L57.1295 15.2604H61.5356L64.3995 23.4392C64.6474 24.1276 64.8677 24.9813 65.0054 25.7248C65.1431 24.9813 65.3634 24.1276 65.6112 23.4392L68.4752 15.2604H72.7986L66.8504 29.5801H63.1053ZM79.4314 29.9381C74.9978 29.9381 72.0237 26.5785 72.0237 22.4478C72.0237 18.3171 75.1355 14.9024 79.4314 14.9024C83.7273 14.9024 86.7014 18.3171 86.7014 22.4478C86.7014 22.8609 86.6739 23.3015 86.5913 23.7696H75.879C76.2921 25.4494 77.5588 26.6336 79.4314 26.6336C81.0286 26.6336 82.2678 25.8074 82.9287 24.7059L85.8202 26.8814C84.6636 28.6714 82.2678 29.9381 79.4314 29.9381ZM75.879 20.9883H82.9563C82.5432 19.3911 81.1939 18.0968 79.3763 18.0968C77.6139 18.0968 76.2921 19.2809 75.879 20.9883ZM88.3335 29.5801V15.2604H91.941V17.9866C92.4367 15.9213 93.8962 14.7922 96.3746 14.9299V18.4273H95.8514C93.7034 18.4273 92.0511 19.8592 92.0511 22.255V29.5801H88.3335ZM107.25 29.9381C101.522 29.9381 97.1984 25.477 97.1984 19.9694C97.1984 14.4342 101.522 9.94555 107.25 9.94555C110.527 9.94555 112.73 11.0195 114.327 12.9747L111.573 15.343C110.527 14.2139 109.04 13.5255 107.25 13.5255C103.532 13.5255 101.191 16.4445 101.191 19.9694C101.191 23.4942 103.532 26.4133 107.25 26.4133C110.306 26.4133 112.234 24.9813 112.675 21.9797L106.341 22.0347V18.5649H116.392C116.475 19.1432 116.53 20.1071 116.53 20.7129C116.53 26.0553 113.033 29.9381 107.25 29.9381ZM118.319 29.5801V15.2604H121.926V17.9866C122.422 15.9213 123.881 14.7922 126.36 14.9299V18.4273H125.837C123.689 18.4273 122.036 19.8592 122.036 22.255V29.5801H118.319ZM133.975 29.9381C129.541 29.9381 126.347 26.5785 126.347 22.4478C126.347 18.3171 129.541 14.9299 133.975 14.9299C138.408 14.9299 141.603 18.3171 141.603 22.4478C141.603 26.5785 138.408 29.9381 133.975 29.9381ZM130.064 22.4478C130.064 24.6784 131.606 26.551 133.975 26.551C136.343 26.551 137.885 24.6784 137.885 22.4478C137.885 20.2172 136.343 18.3171 133.975 18.3171C131.606 18.3171 130.064 20.2172 130.064 22.4478ZM145.712 29.5801L141.251 15.2604H145.602L147.447 23.3841C147.612 24.0725 147.777 24.8436 147.887 25.5596C147.998 24.8436 148.163 24.045 148.356 23.3566L150.448 15.2604H154.717L156.947 23.3566C157.14 24.045 157.305 24.8436 157.416 25.5596C157.526 24.8436 157.691 24.0725 157.856 23.3841L159.839 15.2604H163.887L159.426 29.5801H155.405L153.065 21.4289C152.844 20.7404 152.679 19.9969 152.569 19.2809C152.459 19.9969 152.321 20.7404 152.128 21.4289L149.98 29.5801H145.712Z" fill="white"/>
<path d="M7.65665 5.19833C11.4197 4.19003 15.5245 5.71172 16.8017 10.4782" stroke="white" stroke-width="2.7088" stroke-linecap="round"/>
<path d="M15.433 1.96717C19.1961 2.97547 21.9901 6.34572 20.7129 11.1122" stroke="white" stroke-width="2.7088" stroke-linecap="round"/>
<path d="M23.7836 3.057C26.5383 5.81174 27.2729 10.1275 23.7836 13.6168" stroke="white" stroke-width="2.7088" stroke-linecap="round"/>
<path d="M30.4698 8.17585C31.4781 11.9389 29.9564 16.0437 25.1899 17.3209" stroke="white" stroke-width="2.7088" stroke-linecap="round"/>
<path d="M33.7011 15.9521C32.6928 19.7152 29.3226 22.5092 24.5561 21.232" stroke="white" stroke-width="2.7088" stroke-linecap="round"/>
<path d="M32.611 24.3021C29.8562 27.0568 25.5405 27.7914 22.0511 24.3021" stroke="white" stroke-width="2.7088" stroke-linecap="round"/>
<path d="M27.4918 30.9886C23.7287 31.9969 19.6239 30.4752 18.3467 25.7087" stroke="white" stroke-width="2.7088" stroke-linecap="round"/>
<path d="M19.7154 34.2197C15.9524 33.2114 13.1583 29.8411 14.4355 25.0746" stroke="white" stroke-width="2.7088" stroke-linecap="round"/>
<path d="M11.3658 33.1299C8.61111 30.3752 7.87652 26.0594 11.3658 22.5701" stroke="white" stroke-width="2.7088" stroke-linecap="round"/>
<path d="M4.67965 28.011C3.67135 24.248 5.19305 20.1432 9.95956 18.866" stroke="white" stroke-width="2.7088" stroke-linecap="round"/>
<path d="M1.44828 20.2348C2.45658 16.4717 5.82683 13.6777 10.5933 14.9549" stroke="white" stroke-width="2.7088" stroke-linecap="round"/>
<path d="M2.53845 11.8848C5.29318 9.13006 9.60894 8.39547 13.0983 11.8848" stroke="white" stroke-width="2.7088" stroke-linecap="round"/>
</svg>
